<?xml version="1.0" encoding="utf-8"?>
<!-- Generator: Adobe Illustrator 16.0.0, SVG Export Plug-In . SVG Version: 6.00 Build 0)  -->
<!DOCTYPE svg PUBLIC "-//W3C//DTD SVG 1.1//EN" "http://www.w3.org/Graphics/SVG/1.1/DTD/svg11.dtd">
<svg version="1.1" xmlns="http://www.w3.org/2000/svg" xmlns:xlink="http://www.w3.org/1999/xlink" x="0px" y="0px" width="1400px"
	 height="1400px" viewBox="0 0 1400 1400" enable-background="new 0 0 1400 1400" xml:space="preserve">
<g id="Layer_2" display="none">
	<g display="inline">
		<path fill="none" stroke="#231F20" stroke-width="16" stroke-linecap="round" stroke-linejoin="round" stroke-miterlimit="10" d="
			M630,122.57c0,0,2,25.76-10,51.1c-2.51,5.31-2.51,5.31-2.51,5.31c-4.516,5.451-13.268,13.667-19.45,18.257l-18.616,16.601
			c-6.833,3.549-18.113,9.159-25.066,12.468l-37.147,17.678C510.259,247.293,504.57,256.3,504.57,264v542.82c0,7.7,0,20.3,0,28
			v94.439c0,7.7,0,20.3,0,28v306.17c0,7.7,6.3,14,14,14h206.28c7.7,0,20.3,0,28,0h12.86c7.7,0,20.3,0,28,0h81.9c7.7,0,14-6.3,14-14
			V260c0-7.7-5.825-16.399-12.945-19.331l-36.54-15.048c-7.12-2.932-18.536-8.234-25.37-11.783l-18.615-16.601
			c-6.182-4.591-14.934-12.807-19.449-18.257c0,0,0,0-2.511-5.31c-12-25.34-10-51.1-10-51.1"/>
	</g>
	
		<path display="inline" fill="none" stroke="#231F20" stroke-width="12" stroke-linecap="round" stroke-linejoin="round" stroke-miterlimit="10" d="
		M609.284,188.886c0,0,115.013,55.386,175.613,0"/>
	
		<path display="inline" fill="none" stroke="#231F20" stroke-width="12" stroke-linecap="round" stroke-linejoin="round" stroke-miterlimit="10" d="
		M583.799,213.502c0,0,142.168,70.002,226.584,0"/>
	<g display="inline">
		
			<line fill="none" stroke="#231F20" stroke-width="12" stroke-linecap="round" stroke-linejoin="round" stroke-miterlimit="10" x1="503.933" y1="471.695" x2="696.565" y2="664.328"/>
		
			<line fill="none" stroke="#231F20" stroke-width="12" stroke-linecap="round" stroke-linejoin="round" stroke-miterlimit="10" x1="890.249" y1="471.695" x2="697.616" y2="664.328"/>
	</g>
	<g display="inline">
		
			<line fill="none" stroke="#231F20" stroke-width="12" stroke-linecap="round" stroke-linejoin="round" stroke-miterlimit="10" x1="578.714" y1="584.012" x2="696.769" y2="702.066"/>
		
			<line fill="none" stroke="#231F20" stroke-width="12" stroke-linecap="round" stroke-linejoin="round" stroke-miterlimit="10" x1="815.468" y1="584.012" x2="697.413" y2="702.066"/>
	</g>
	
		<polyline display="inline" fill="none" stroke="#231F20" stroke-width="12" stroke-linecap="round" stroke-linejoin="round" stroke-miterlimit="10" points="
		503.933,681.818 573.869,751.754 573.869,1125.862 506.216,1058.209 	"/>
	
		<polyline display="inline" fill="none" stroke="#231F20" stroke-width="12" stroke-linecap="round" stroke-linejoin="round" stroke-miterlimit="10" points="
		890.894,681.818 820.957,751.754 820.957,1125.862 888.61,1058.209 	"/>
	
		<path display="inline" fill="none" stroke="#231F20" stroke-width="14" stroke-linecap="round" stroke-linejoin="round" stroke-miterlimit="10" d="
		M377.99,582.844l8.844,689.944c0,0-19.869,10.254-21.998,0.281s-61.199-249.236-61.199-249.236s-18.639-49.764-1.871-145.988
		c16.77-96.221,32.332-286.437,32.332-286.437S357.686,559.103,377.99,582.844z"/>
	
		<path display="inline" fill="none" stroke="#231F20" stroke-width="12" stroke-linecap="round" stroke-linejoin="round" stroke-miterlimit="10" d="
		M347.52,576.541l-1.957-320.376c0,0-3.909-29.165,15.192-31.449l8.128-0.695c19.037,2.756,14.41,31.816,14.41,31.816
		l-9.897,320.228L347.52,576.541z"/>
	
		<path display="inline" fill="none" stroke="#231F20" stroke-width="12" stroke-linecap="round" stroke-linejoin="round" stroke-miterlimit="10" d="
		M1027.35,605.7c8.771,3.77,44,17.25,64.9,0.45"/>
	
		<path display="inline" fill="none" stroke="#231F20" stroke-width="10" stroke-linecap="round" stroke-linejoin="round" stroke-miterlimit="10" d="
		M1015.389,618.39c0,0,55.461,27.309,88.393,0"/>
	<g display="inline">
		
			<line fill="none" stroke="#231F20" stroke-width="10" stroke-linecap="round" stroke-linejoin="round" stroke-miterlimit="10" x1="984.232" y1="715.114" x2="1059.381" y2="790.263"/>
		
			<line fill="none" stroke="#231F20" stroke-width="10" stroke-linecap="round" stroke-linejoin="round" stroke-miterlimit="10" x1="1134.938" y1="715.114" x2="1059.791" y2="790.263"/>
	</g>
	<g display="inline">
		
			<line fill="none" stroke="#231F20" stroke-width="10" stroke-linecap="round" stroke-linejoin="round" stroke-miterlimit="10" x1="1013.53" y1="766.129" x2="1059.585" y2="812.184"/>
		
			<line fill="none" stroke="#231F20" stroke-width="10" stroke-linecap="round" stroke-linejoin="round" stroke-miterlimit="10" x1="1105.892" y1="766.129" x2="1059.837" y2="812.184"/>
	</g>
	
		<polyline display="inline" fill="none" stroke="#231F20" stroke-width="10" stroke-linecap="round" stroke-linejoin="round" stroke-miterlimit="10" points="
		984.232,801.085 1011.515,828.368 1011.515,974.313 985.122,947.92 	"/>
	
		<polyline display="inline" fill="none" stroke="#231F20" stroke-width="10" stroke-linecap="round" stroke-linejoin="round" stroke-miterlimit="10" points="
		1135.189,801.085 1107.907,828.368 1107.907,974.313 1134.299,947.92 	"/>
	
		<polyline display="inline" fill="none" stroke="#231F20" stroke-width="10" stroke-linecap="round" stroke-linejoin="round" stroke-miterlimit="10" points="
		1013.41,1274.94 1059.71,1228.64 1106.01,1274.94 	"/>
	<g display="inline">
		<path fill="none" stroke="#231F20" stroke-width="14" stroke-linecap="round" stroke-linejoin="round" stroke-miterlimit="10" d="
			M1059.711,363.186c-16.415,0-23.805,19.194-23.805,19.194l-0.126,183.86c0,0-1.261,12.34-2.931,22.9
			c-0.949,6.03-5.55,17.78-7.27,19.65c-6.49,7.05-16.49,12.25-16.49,12.25l-24.359,10.03l0.199,643.871h149.721l0.04-643.871
			l-24.36-10.03c0,0-10-5.2-16.49-12.25c-1.72-1.87-6.84-14.08-7.7-19.31c-1.8-10.99-2.34-21.468-2.34-21.468l-0.174-185.631
			c0,0-7.39-19.194-23.805-19.194H1059.711z"/>
	</g>
</g>
<g id="Layer_4">
	<rect fill="#00A79D" width="1400" height="1400"/>
</g>
<g id="Layer_8">
	<rect x="176.448" y="176.448" fill="#007D76" width="1047.104" height="1047.105"/>
	<g>
		<path fill="#FCDF21" d="M246.861,163.534c3.167-5.791,8.35-5.791,11.517,0l4.308,7.877c3.167,5.791,10.496,13.12,16.287,16.286
			l7.878,4.309c5.791,3.167,5.791,8.35,0,11.517l-7.878,4.309c-5.791,3.167-13.12,10.496-16.287,16.286l-4.308,7.877
			c-3.167,5.791-8.35,5.791-11.517,0l-4.308-7.877c-3.167-5.791-10.496-13.12-16.287-16.287l-7.877-4.308
			c-5.791-3.167-5.791-8.35,0-11.517l7.877-4.308c5.791-3.167,13.12-10.496,16.287-16.287L246.861,163.534z"/>
	</g>
	<g>
		<path fill="#FCDF21" d="M1252.424,574.141c3.167-5.791,8.35-5.791,11.517,0l4.308,7.877c3.168,5.791,10.496,13.12,16.287,16.286
			l7.878,4.309c5.79,3.167,5.79,8.35,0,11.517l-7.878,4.309c-5.791,3.167-13.119,10.496-16.287,16.286l-4.308,7.877
			c-3.167,5.791-8.35,5.791-11.517,0l-4.309-7.877c-3.166-5.791-10.496-13.12-16.286-16.287l-7.878-4.308
			c-5.79-3.167-5.79-8.35,0-11.517l7.878-4.308c5.79-3.167,13.12-10.496,16.286-16.287L1252.424,574.141z"/>
	</g>
	<g>
		<path fill="#FCDF21" d="M983.861,293.691c3.021-5.524,7.965-5.524,10.986,0s10.014,12.516,15.538,15.537
			c5.524,3.021,5.524,7.966,0,10.987c-5.524,3.021-12.517,10.013-15.538,15.537s-7.965,5.524-10.986,0s-10.013-12.516-15.537-15.537
			c-5.524-3.021-5.524-7.966,0-10.987C973.849,306.208,980.84,299.216,983.861,293.691z"/>
	</g>
	<g>
		<path fill="#FCDF21" d="M194.005,226.457c2.31-4.223,6.089-4.223,8.399,0s7.655,9.568,11.878,11.878
			c4.224,2.31,4.224,6.089,0,8.399c-4.223,2.31-9.568,7.655-11.878,11.878s-6.089,4.223-8.399,0s-7.655-9.568-11.878-11.878
			s-4.223-6.089,0-8.399S191.695,230.68,194.005,226.457z"/>
	</g>
	<g>
		<path fill="#FCDF21" d="M234.089,261.298c3.098-5.664,8.166-5.664,11.264,0c3.099,5.664,10.268,12.833,15.932,15.931
			c5.664,3.097,5.664,8.167,0,11.264s-12.833,10.267-15.932,15.931c-3.098,5.664-8.166,5.664-11.264,0
			c-3.099-5.664-10.267-12.833-15.931-15.931s-5.664-8.167,0-11.264C223.823,274.131,230.991,266.962,234.089,261.298z"/>
	</g>
	<g>
		<g>
			<path fill="#00B59B" d="M705.666,1093.36c-4.667,4.667-12.304,4.667-16.971,0L303.82,708.484c-4.667-4.667-4.667-12.304,0-16.971
				L688.695,306.64c4.667-4.667,12.304-4.667,16.971,0l384.875,384.874c4.667,4.667,4.667,12.304,0,16.971L705.666,1093.36z"/>
		</g>
		<g>
			<path fill="#00B59B" d="M369.344,877.867c4.667,4.667,12.304,4.667,16.971,0l169.385-169.382c4.667-4.667,4.667-12.304,0-16.971
				L386.314,522.133c-4.667-4.667-12.304-4.667-16.971,0L199.962,691.515c-4.667,4.667-4.667,12.304,0,16.971L369.344,877.867z"/>
		</g>
		<g>
			<path fill="#00B59B" d="M1030.656,877.867c-4.667,4.667-12.304,4.667-16.971,0L844.301,708.485
				c-4.667-4.667-4.667-12.304,0-16.971l169.385-169.382c4.667-4.667,12.304-4.667,16.971,0l169.382,169.382
				c4.667,4.667,4.667,12.304,0,16.971L1030.656,877.867z"/>
		</g>
	</g>
	
		<line fill="none" stroke="#014947" stroke-width="11" stroke-linecap="round" stroke-miterlimit="10" x1="1117.846" y1="266.292" x2="1309" y2="266.292"/>
	
		<line fill="none" stroke="#014947" stroke-width="11" stroke-linecap="round" stroke-miterlimit="10" x1="1088.786" y1="266.292" x2="1065.572" y2="266.292"/>
	
		<line fill="none" stroke="#014947" stroke-width="11" stroke-linecap="round" stroke-miterlimit="10" x1="69.757" y1="425.093" x2="221.962" y2="425.093"/>
	
		<line fill="none" stroke="#014947" stroke-width="11" stroke-linecap="round" stroke-miterlimit="10" x1="252.62" y1="425.093" x2="271.583" y2="425.093"/>
	
		<line fill="none" stroke="#014947" stroke-width="11" stroke-linecap="round" stroke-miterlimit="10" x1="424" y1="497.35" x2="470" y2="497.35"/>
	
		<line fill="none" stroke="#014947" stroke-width="11" stroke-linecap="round" stroke-miterlimit="10" x1="919" y1="692.23" x2="951" y2="692.23"/>
	
		<line fill="none" stroke="#014947" stroke-width="11" stroke-linecap="round" stroke-miterlimit="10" x1="1110.892" y1="518.333" x2="1163" y2="518.333"/>
	
		<line fill="none" stroke="#014947" stroke-width="11" stroke-linecap="round" stroke-miterlimit="10" x1="1163" y1="884.581" x2="1293" y2="884.581"/>
	
		<line fill="none" stroke="#014947" stroke-width="11" stroke-linecap="round" stroke-miterlimit="10" x1="1197" y1="518.333" x2="1213.423" y2="518.333"/>
	
		<line fill="none" stroke="#014947" stroke-width="11" stroke-linecap="round" stroke-miterlimit="10" x1="1310" y1="884.581" x2="1343" y2="884.581"/>
	
		<line fill="none" stroke="#014947" stroke-width="11" stroke-linecap="round" stroke-miterlimit="10" x1="174.448" y1="1054" x2="366.595" y2="1054"/>
	
		<line fill="none" stroke="#014947" stroke-width="11" stroke-linecap="round" stroke-miterlimit="10" x1="154.333" y1="1054" x2="137" y2="1054"/>
</g>
<g id="Layer_6">
	<polygon fill="#FE4D19" points="567.87,754.24 567.87,1111.38 521.1,1064.61 521.1,707.47 	"/>
	<polygon fill="#FE4D19" points="872,709.2 872,1066.33 826.96,1111.38 826.96,754.24 	"/>
	<path fill="#194A5B" d="M872,247.4v234.06L697.09,656.37L521.1,480.38V251l36.7-17.47c7.04-3.35,18.4-9,25.31-12.59
		c0.36-0.19,0.7-0.41,1.02-0.65c9.58,4.4,40.92,17.9,80.19,25.36c17.42,3.31,34.08,4.96,49.8,4.96c8.99,0,17.68-0.54,26.02-1.63
		c27.42-3.57,51.181-13.05,70.71-28.17c0.07,0.04,0.141,0.09,0.221,0.13c7.02,3.65,18.689,9.06,26.01,12.08L872,247.4z"/>
	<path fill="#AFAF05" d="M801.55,212.78l-10.475-9.34c-2.217-1.664-4.682-3.703-7.162-5.896
		c-18.452,14.515-42.792,21.917-71.802,21.917c-12.169,0-25.153-1.297-38.869-3.912c-28.402-5.413-51.998-14.838-61.763-19.087
		c-2.885,2.603-5.796,5.042-8.375,6.977l-9.08,8.097c12.721,5.474,40.214,16.217,72.801,22.373
		C705.929,241.296,760.323,243.32,801.55,212.78z"/>
	<path fill="#D3AE7D" d="M872,1249v-165.7l-46.8,46.8c-1.15,1.15-2.681,1.761-4.24,1.761c-0.78,0-1.56-0.15-2.3-0.45
		c-2.24-0.93-3.7-3.12-3.7-5.55V751.75c0-1.59,0.63-3.11,1.75-4.24L872,692.23v-193.8L701.86,668.57c-1.17,1.17-2.71,1.76-4.24,1.76
		c-0.18,0-0.35-0.04-0.53-0.05c-0.17,0.01-0.35,0.05-0.52,0.05c-1.54,0-3.08-0.59-4.25-1.76L521.1,497.35V690.5l57.01,57.01
		c1.13,1.13,1.76,2.65,1.76,4.24v374.11c0,2.43-1.46,4.62-3.7,5.55c-0.75,0.3-1.53,0.45-2.3,0.45c-1.56,0-3.1-0.61-4.24-1.761
		l-48.53-48.52l-8.53-8.53v190.38c0,3.311,2.69,6,6,6H875.61c0.779,0,1.529-0.149,2.22-0.43c2.22-0.88,3.78-3.05,3.78-5.57V1249H872
		z M574.47,588.25c-2.34-2.34-2.34-6.14,0-8.48c2.34-2.34,6.14-2.34,8.49,0L697.09,693.9L728,662.99l83.23-83.22
		c2.34-2.34,6.14-2.34,8.479,0s2.34,6.14,0,8.48L728,679.97l-26.34,26.339c-1.18,1.171-2.71,1.761-4.25,1.761
		c-0.1,0-0.21-0.03-0.32-0.03c-0.11,0-0.21,0.03-0.32,0.03c-1.54,0-3.07-0.59-4.24-1.761L574.47,588.25z"/>
	<polygon fill="#AFAF05" points="371.794,433.667 352.647,433.667 352.777,455 371.134,455 	"/>
	<path fill="#D3AE7D" d="M379.78,1268.28c-2.73,1.08-6.04,2.12-8.36,2.149c0-0.01-0.01-0.02-0.01-0.04
		c-4.77-20.54-58.63-238.72-60.98-248.229c-0.06-0.26-0.14-0.521-0.23-0.771c-0.11-0.31-7.37-20.62-8.29-59.649l7.15-2.11
		c0.07-20.12,1.85-44.53,6.83-73.08c4.18-24.01,8.31-54.01,12.13-85.47l-8.45,2.43c5.29-42.26,10.07-88.12,13.78-126.3l8.48-5.52
		c3.39-35.65,5.67-62.59,6.29-70.11c2.94-3.53,8.62-9.19,14.73-11.69l4.08-0.07c0.19-2.31,0.38-4.47,0.56-6.47
		c-0.67-0.45-1.35-0.83-2.02-1.14l0.74-0.01c0.62,0.28,1.23,0.61,1.84,1.01c0.07,0.05,0.14,0.09,0.21,0.14
		c-1.41,16.37-3.8,43.18-6.89,75.03c-0.02,0.21-0.04,0.43-0.06,0.64l10.57-6.88l1.74,135.78l1.95,152.03l3.62,282.39L379.78,1268.28
		z"/>
	<path fill="#194A5B" d="M351.563,256.128l1.036,169.539h19.443l5.255-170.016c0.008-0.254,0.032-0.507,0.072-0.758
		c0.608-3.917,1.233-15.411-3.146-21.335c-1.408-1.904-3.193-3.025-5.583-3.495l-7.263,0.621c-2.673,0.339-4.647,1.437-6.208,3.451
		c-4.526,5.841-4.147,17.581-3.658,21.233C351.543,255.62,351.561,255.874,351.563,256.128z"/>
	<polygon fill="#D83820" points="370.887,463 352.826,463 353.115,510.333 369.424,510.333 	"/>
	<path fill="#194A5B" d="M1076.627,383.854c-1.597-3.356-7.277-13.667-16.806-13.667h-0.11c-9.516,0-15.194,10.283-16.806,13.67
		L1042.84,480h33.877L1076.627,383.854z"/>
	<path fill="#194A5B" d="M361.432,567.132c2.128,0,4.2,0.26,6.213,0.767l1.532-49.565h-16.012l0.305,49.983
		C356.005,567.57,358.669,567.132,361.432,567.132z"/>
	<polygon fill="#CFCF69" points="361.17,455.006 351.653,455.006 351.483,433.667 361,433.667 	"/>
	<path fill="#75929D" d="M374.583,230.546l-2.169,0.14c-3.504,0.34-6.08,1.44-8.118,3.45c-5.922,5.84-5.426,17.58-4.785,21.23
		c0.039,0.25,0.065,0.51,0.065,0.76l1.359,169.54h-9.517l-1.359-169.54c0-0.25-0.026-0.51-0.066-0.76
		c-0.64-3.65-1.137-15.39,4.785-21.23c2.04-2.01,4.615-3.11,8.105-3.45l9.504-0.62C373.17,230.187,373.903,230.346,374.583,230.546z
		"/>
	<polygon fill="#FE7147" points="361.615,510.336 352.084,510.336 351.719,463.006 361.235,463.006 	"/>
	<path fill="#75929D" d="M362.059,567.146c-3.293,0.07-6.47,0.49-9.503,1.17l-0.405-49.98h9.517L362.059,567.146z"/>
	<polygon fill="#FE4D19" points="1122.78,820.57 1122.78,952.37 1112.91,962.24 1112.91,830.44 	"/>
	<polygon fill="#FE4D19" points="1082.33,1258.33 1037.09,1258.33 1059.71,1235.71 	"/>
	<polygon fill="#FE4D19" points="1006.51,830.44 1006.51,962.24 996.64,952.37 996.64,820.56 	"/>
	<path fill="#D3AE7D" d="M1104.37,824.83l18.41-18.41v-72.08l-59.45,59.46c-0.98,0.97-2.26,1.46-3.54,1.46
		c-0.07,0-0.14-0.01-0.2-0.02c-0.07,0.01-0.14,0.02-0.21,0.02c-1.28,0-2.56-0.49-3.53-1.46l-59.21-59.21v71.84l18.41,18.4
		c0.94,0.939,1.46,2.21,1.46,3.54V974.31c0,2.021-1.21,3.851-3.08,4.62c-0.62,0.261-1.27,0.38-1.91,0.38
		c-1.31,0-2.579-0.51-3.539-1.46l-11.341-11.34v291.82h26.311l33.22-33.23c0.94-0.93,2.21-1.46,3.54-1.46s2.6,0.53,3.54,1.46
		l33.22,33.23h26.311V966.51l-11.34,11.34c-0.95,0.95-2.23,1.46-3.53,1.46c-0.65,0-1.3-0.119-1.92-0.38
		c-1.87-0.77-3.08-2.6-3.08-4.62V828.37C1102.91,827.04,1103.43,825.77,1104.37,824.83z M1063.37,815.72
		c-0.97,0.98-2.25,1.46-3.53,1.46c-0.05,0-0.09-0.01-0.13-0.01s-0.08,0.01-0.13,0.01c-1.271,0-2.55-0.479-3.53-1.46L1010,769.66
		c-1.96-1.95-1.96-5.11,0-7.07c1.95-1.95,5.11-1.95,7.07,0l42.64,42.65l42.65-42.65c1.949-1.95,5.12-1.95,7.069,0
		c1.95,1.96,1.95,5.12,0,7.07L1063.37,815.72z"/>
	<path fill="#153C4D" d="M1122.78,633.74v86.47l-63.19,63.19l-62.95-62.95v-86.71l15.11-6.23c0.2-0.08,0.38-0.16,0.57-0.26
		c0.18-0.09,2.01-1.05,4.6-2.67c8.1,3.48,28.04,11,49.24,11c12.67,0,25.78-2.7,37.09-10.54c2.19,1.34,3.69,2.13,3.85,2.21
		c0.19,0.1,0.37,0.18,0.57,0.26L1122.78,633.74z"/>
	<path fill="#AFAF05" d="M1094.389,618.821c-1.519-1.232-3.031-2.569-4.449-3.99c-7.555,4.065-16.038,5.557-24.387,5.557
		c-13.443,0-26.528-3.833-34.802-6.881c-0.006,0.007-0.013,0.015-0.019,0.021c-1.321,1.436-2.759,2.795-4.229,4.062
		C1041.424,623.109,1072.02,631.574,1094.389,618.821z"/>
	<polygon fill="#D83820" points="1076.743,507.5 1042.82,507.5 1042.79,551.998 1076.785,551.998 	"/>
	<polygon fill="#AFAF05" points="1076.725,488 1042.834,488 1042.826,499.5 1076.735,499.5 	"/>
	<path fill="#194A5B" d="M1083.786,604.495c-2.152-5.096-4.058-10.865-4.554-13.879c-1.842-11.249-2.4-21.8-2.423-22.244
		c-0.007-0.118-0.01-0.236-0.01-0.354l-0.008-8.02h-34.008l-0.004,6.247c0,0.236-0.013,0.472-0.036,0.707
		c-0.053,0.512-1.3,12.654-2.98,23.282c-0.467,2.963-1.889,7.848-3.604,12.453C1047.381,606.643,1068.721,612.238,1083.786,604.495z
		"/>
	<path fill="#CC9E6D" d="M380.47,1227.54c-0.42-1.72-0.85-3.45-1.28-5.2c-18.9-76.859-42.01-170.47-43.61-176.96
		c-0.06-0.29-0.15-0.58-0.25-0.85c-0.2-0.54-19.73-55.2-1.72-158.57c10.61-60.88,20.86-156.19,27.7-226.94l10.57-6.88l-0.85-66.51
		c-0.92-0.9-1.84-1.66-2.77-2.28c0.18-2.09,0.35-4,0.5-5.74c0.35-4.1,0.61-7.18,0.77-9.12c0.69-0.82,1.51-1.76,2.46-2.75l0.18,13.67
		l0.92,71.94L380.47,1227.54z"/>
	<path fill="#194A5B" d="M637.006,118.705c0,0,71.994,27.705,129.994,0c0,0,2,57.295,17.5,72.795c0,0-48.504,27.548-66.5,21.5
		c0,0-88-5-107-26c0,0,33-56.591,22-68.295"/>
</g>
<g id="Layer_7">
	<g>
		<g>
			<path fill="#AD8E6A" d="M631.094,772.087c0,61.497,0,122.994,0,184.491c0,5.804,9,5.804,9,0c0-61.497,0-122.994,0-184.491
				C640.094,766.283,631.094,766.283,631.094,772.087L631.094,772.087z"/>
		</g>
	</g>
	<g>
		<g>
			<path fill="#AD8E6A" d="M632.594,998.576c0,7.999,0,15.999,0,23.998c0,5.804,9,5.804,9,0c0-7.999,0-15.999,0-23.998
				C641.594,992.772,632.594,992.772,632.594,998.576L632.594,998.576z"/>
		</g>
	</g>
	<g>
		<g>
			<path fill="#AD8E6A" d="M746.588,1063.072c0,34.998,0,69.997,0,104.995c0,5.804,9,5.804,9,0c0-34.998,0-69.997,0-104.995
				C755.588,1057.269,746.588,1057.269,746.588,1063.072L746.588,1063.072z"/>
		</g>
	</g>
	<g>
		<g>
			<path fill="#AD8E6A" d="M752.588,1205.565c5.804,0,5.804-9,0-9S746.784,1205.565,752.588,1205.565L752.588,1205.565z"/>
		</g>
	</g>
	<g>
		<g>
			<path fill="#AD8E6A" d="M533.599,614.595c0,7.5,0,15,0,22.499c0,5.804,9,5.804,9,0c0-7.5,0-15,0-22.499
				C542.599,608.792,533.599,608.792,533.599,614.595L533.599,614.595z"/>
		</g>
	</g>
	<g>
		<g>
			<path fill="#AD8E6A" d="M850.083,580.097c0,14.999,0,29.999,0,44.998c0,5.804,9,5.804,9,0c0-14.999,0-29.999,0-44.998
				C859.083,574.293,850.083,574.293,850.083,580.097L850.083,580.097z"/>
		</g>
	</g>
	<g>
		<g>
			<path fill="#AD8E6A" d="M854.583,662.593c5.804,0,5.804-9,0-9S848.779,662.593,854.583,662.593L854.583,662.593z"/>
		</g>
	</g>
	<g>
		<g>
			<path fill="#AD8E6A" d="M596.5,1235c0-8.333,0-16.667,0-25c0-5.804-9-5.804-9,0c0,8.333,0,16.667,0,25
				C587.5,1240.804,596.5,1240.804,596.5,1235L596.5,1235z"/>
		</g>
	</g>
	<g>
		<g>
			<path fill="#AD8E6A" d="M842.5,1273c0-8,0-16,0-24c0-5.804-9-5.804-9,0c0,8,0,16,0,24C833.5,1278.804,842.5,1278.804,842.5,1273
				L842.5,1273z"/>
		</g>
	</g>
	<g>
		<g>
			<path fill="#AD8E6A" d="M723.5,638c0,22.333,0,44.667,0,67c0,5.804,9,5.804,9,0c0-22.333,0-44.667,0-67
				C732.5,632.196,723.5,632.196,723.5,638L723.5,638z"/>
		</g>
	</g>
	<g>
		<g>
			<path fill="#AD8E6A" d="M839.5,1154c0,4.667,0,9.333,0,14c0,5.804,9,5.804,9,0c0-4.667,0-9.333,0-14
				C848.5,1148.196,839.5,1148.196,839.5,1154L839.5,1154z"/>
		</g>
	</g>
	<g>
		<g>
			<path fill="#AD8E6A" d="M636,1058.5c5.804,0,5.804-9,0-9S630.196,1058.5,636,1058.5L636,1058.5z"/>
		</g>
	</g>
	<g>
		<g>
			<path fill="#AD8E6A" d="M1006.825,788.586c0,8.5,0,16.999,0,25.499c0,2.902,4.5,2.902,4.5,0c0-8.5,0-16.999,0-25.499
				C1011.325,785.684,1006.825,785.684,1006.825,788.586L1006.825,788.586z"/>
		</g>
	</g>
	<g>
		<g>
			<path fill="#AD8E6A" d="M1030.824,875.582c0,33.998,0,67.996,0,101.994c0,2.902,4.5,2.902,4.5,0c0-33.998,0-67.996,0-101.994
				C1035.324,872.68,1030.824,872.68,1030.824,875.582L1030.824,875.582z"/>
		</g>
	</g>
	<g>
		<g>
			<path fill="#AD8E6A" d="M1017.325,1253.563c0-16.499,0-32.998,0-49.497c0-2.901-4.5-2.901-4.5,0c0,16.499,0,32.998,0,49.497
				C1012.825,1256.465,1017.325,1256.465,1017.325,1253.563L1017.325,1253.563z"/>
		</g>
	</g>
	<g>
		<g>
			<path fill="#AD8E6A" d="M1090.821,1025.574c0,25.999,0,51.997,0,77.996c0,2.902,4.5,2.902,4.5,0c0-25.999,0-51.997,0-77.996
				C1095.321,1022.672,1090.821,1022.672,1090.821,1025.574L1090.821,1025.574z"/>
		</g>
	</g>
	<g>
		<g>
			<path fill="#AD8E6A" d="M1089.321,1123.069c0,3.5,0,7,0,10.5c0,2.901,4.5,2.901,4.5,0c0-3.5,0-7,0-10.5
				C1093.821,1120.168,1089.321,1120.168,1089.321,1123.069L1089.321,1123.069z"/>
		</g>
	</g>
	<g>
		<g>
			<path fill="#AD8E6A" d="M1039.823,1073.572c0,18.999,0,37.998,0,56.997c0,2.901,4.5,2.901,4.5,0c0-18.999,0-37.998,0-56.997
				C1044.323,1070.67,1039.823,1070.67,1039.823,1073.572L1039.823,1073.572z"/>
		</g>
	</g>
	<g>
		<g>
			<path fill="#AD8E6A" d="M1042.073,1147.818c2.901,0,2.901-4.5,0-4.5S1039.172,1147.818,1042.073,1147.818L1042.073,1147.818z"/>
		</g>
	</g>
	<g>
		<g>
			<path fill="#AD8E6A" d="M1083.321,773.587c0,18.499,0,36.998,0,55.497c0,2.902,4.5,2.902,4.5,0c0-18.499,0-36.998,0-55.497
				C1087.821,770.685,1083.321,770.685,1083.321,773.587L1083.321,773.587z"/>
		</g>
	</g>
	<g>
		<g>
			<path fill="#AD8E6A" d="M1108.82,776.587c0,4,0,7.999,0,11.999c0,2.902,4.5,2.902,4.5,0c0-4,0-7.999,0-11.999
				C1113.32,773.685,1108.82,773.685,1108.82,776.587L1108.82,776.587z"/>
		</g>
	</g>
	<g>
		<g>
			<path fill="#AD8E6A" d="M1108.82,808.085c0,0.5,0,1,0,1.5c0,1.227,1.023,2.25,2.25,2.25s2.25-1.023,2.25-2.25c0-0.5,0-1,0-1.5
				c0-1.227-1.023-2.25-2.25-2.25S1108.82,806.858,1108.82,808.085L1108.82,808.085z"/>
		</g>
	</g>
	<g>
		<g>
			<path fill="#AD8E6A" d="M360.357,860.582c0,15.999,0,31.999,0,47.998c0,2.902,4.5,2.902,4.5,0c0-15.999,0-31.999,0-47.998
				C364.857,857.68,360.357,857.68,360.357,860.582L360.357,860.582z"/>
		</g>
	</g>
	<g>
		<g>
			<path fill="#AD8E6A" d="M362.607,951.328c2.902,0,2.902-4.5,0-4.5S359.706,951.328,362.607,951.328L362.607,951.328z"/>
		</g>
	</g>
	<g>
		<g>
			<path fill="#AD8E6A" d="M358.107,1067.572c0.058,16.508,1.381,33.01,0,49.497c-0.485,5.787,8.519,5.74,9,0
				c1.381-16.487,0.058-32.989,0-49.497C367.087,1061.77,358.087,1061.768,358.107,1067.572L358.107,1067.572z"/>
		</g>
	</g>
	<g>
		<g>
			<path fill="#AD8E6A" d="M357.357,1190.565c0,10.5,0,20.999,0,31.499c0,2.902,4.5,2.902,4.5,0c0-10.5,0-20.999,0-31.499
				C361.857,1187.664,357.357,1187.664,357.357,1190.565L357.357,1190.565z"/>
		</g>
	</g>
	<path fill="#0E434F" d="M371.88,651.54l-10.57,6.88c3.267-32.13,5.293-59.19,6.78-75.67c0.974,0.62,2.827,1.75,3.79,2.65V651.54z"
		/>
	<path fill="#194A5B" d="M379.78,587.5V647l-6.69,4.35l-1.21,0.79l-0.01-0.6l-0.84-65.91c-0.92-0.9-1.84-1.66-2.77-2.28
		c-1.41,16.37-3.8,43.18-6.89,75.03c-0.02,0.21-0.04,0.43-0.06,0.64l-19.48,12.67c3.39-35.65,5.67-62.59,6.29-70.11
		c2.94-3.53,8.62-9.19,14.73-11.69l4.08-0.07c0.19-2.31,0.38-4.47,0.56-6.47c-0.67-0.45-1.35-0.83-2.02-1.14l-9.84,0.18
		c-6.12,2.5-11.8,8.16-14.73,11.69c-0.7,8.41-3.48,41.12-7.55,83.13l-0.82,0.54l-6.54,4.25l6.01-56.16c0,0,2.49-17.32,8.11-31.64
		c0.02-0.07,0.05-0.13,0.08-0.2c3.88-9.84,9.25-18.22,16.31-18.5c4.99-0.2,9.03,0.71,12.26,2.11c1.26,0.53,2.4,1.15,3.41,1.8
		C377.64,582.92,379.78,587.5,379.78,587.5z"/>
	<path fill="#FE4D19" d="M308.66,879.05c-5.79,33.25-7.26,60.891-6.75,82.69l-0.76,0.229l-3.48,1.03l7.12-155.22l13.97-4.03
		l0.81-0.23C316.1,831.33,312.41,857.58,308.66,879.05z"/>
	<path fill="#FE4D19" d="M380.65,938.45l-3.87,1.14l-1.21,0.36l-49.32,14.59l-17.19,5.09c0.07-20.12,1.85-44.53,6.83-73.08
		c4.18-24.01,8.31-54.01,12.13-85.47l18.5-5.34l27.1-7.82l1.21-0.35l4.31-1.24L380.65,938.45z"/>
	<path fill="#E03817" d="M376.78,939.59l-50.53,14.95c0.68-19.73,2.84-42.62,7.36-68.58c4.44-25.479,8.82-57,12.91-90.22l28.31-8.17
		L376.78,939.59z"/>
	<path fill="#75929D" d="M521.1,251v229.38l-8.53-8.53V264c0-4.6,3.93-10.82,8.08-12.79L521.1,251z"/>
	<polygon fill="#E5CEB1" points="521.1,497.35 521.1,690.5 512.57,681.97 512.57,488.82 	"/>
	<polygon fill="#FE7147" points="521.1,707.47 521.1,1064.61 512.57,1056.08 512.57,698.94 	"/>
	<path fill="#E5CEB1" d="M512.57,264v207.85l8.53,8.53v16.97l-8.53-8.53v193.15l8.53,8.53v16.97l-8.53-8.53v357.14l8.53,8.53v189.33
		H509v19.649h12.1v7.41h-15.93V245.61h15.93V251l-0.45,0.21C516.5,253.18,512.57,259.4,512.57,264z"/>
	<path fill="#75929D" d="M881.61,260v211.85l-9.61,9.61V247.4l1.62,0.67C877.73,249.76,881.61,255.56,881.61,260z"/>
	<polygon fill="#E5CEB1" points="881.61,488.82 881.61,682.62 872,692.23 872,498.43 	"/>
	<polygon fill="#FE7147" points="881.61,699.59 881.61,1056.72 872,1066.33 872,709.2 	"/>
	<polygon fill="#E5CEB1" points="881.61,1073.69 881.61,1249 872,1249 872,1083.3 	"/>
	<path fill="#FFFFFF" d="M889.61,245.61v1031.57H872V1269h12.1v-19.19H872V1249h9.61v-175.31L872,1083.3v-16.97l9.61-9.61V699.59
		L872,709.2v-16.97l9.61-9.61v-193.8l-9.61,9.61v-16.97l9.61-9.61V260c0-4.44-3.88-10.24-7.99-11.93L872,247.4v-1.79H889.61z"/>
	<rect x="509" y="1249" fill="#BA9878" width="12.1" height="27.79"/>
	<rect x="872" y="1249" fill="#BA9878" width="12.1" height="27.79"/>
	<rect x="521.1" y="1249" fill="#AD8E6A" width="350.9" height="27.79"/>
	<polygon fill="#75929D" points="996.64,633.74 996.64,720.45 991.76,715.57 991.73,635.76 	"/>
	<polygon fill="#E5CEB1" points="996.64,734.59 996.64,806.43 991.78,801.57 991.76,729.71 	"/>
	<polygon fill="#FE7147" points="996.64,820.56 996.64,952.37 991.83,947.56 991.79,815.71 	"/>
	<polygon fill="#E5CEB1" points="996.64,966.51 996.64,1258.33 991.93,1258.33 991.83,961.7 	"/>
	<polygon fill="#FE7147" points="996.64,633.74 991.73,635.76 991.76,715.57 996.64,720.45 996.64,734.59 991.76,729.71 
		991.78,801.57 996.64,806.43 996.64,820.56 991.79,815.71 991.83,947.56 996.64,952.37 996.64,966.51 991.83,961.7 991.93,1258.33 
		991.93,1267.94 996.64,1267.94 996.64,1276.79 982.07,1276.79 982.07,624.6 996.64,624.6 	"/>
	<polygon fill="#75929D" points="1127.69,635.76 1127.69,715.3 1122.78,720.21 1122.78,633.74 	"/>
	<polygon fill="#E5CEB1" points="1127.68,729.44 1127.68,801.52 1122.78,806.42 1122.78,734.34 	"/>
	<polygon fill="#FE7147" points="1127.68,815.67 1127.67,947.48 1122.78,952.37 1122.78,820.57 	"/>
	<polygon fill="#E5CEB1" points="1127.67,961.62 1127.65,1258.33 1122.78,1258.33 1122.78,966.51 	"/>
	<polygon fill="#E5CEB1" points="1137.35,624.6 1137.35,1276.79 1122.78,1276.79 1122.78,1267.94 1127.65,1267.94 1127.65,1258.33 
		1127.67,961.62 1122.78,966.51 1122.78,952.37 1127.67,947.48 1127.68,815.67 1122.78,820.57 1122.78,806.42 1127.68,801.52 
		1127.68,729.44 1122.78,734.34 1122.78,720.21 1127.69,715.3 1127.69,635.76 1122.78,633.74 1122.78,624.6 	"/>
	<rect x="991.93" y="1258.33" fill="#BA9878" width="4.71" height="9.61"/>
	<polygon fill="#AD8E6A" points="1022.95,1258.33 1013.34,1267.94 996.64,1267.94 996.64,1258.33 	"/>
	<polygon fill="#F43C11" points="1091.94,1267.94 1027.48,1267.94 1037.09,1258.33 1082.33,1258.33 	"/>
	<polygon fill="#AD8E6A" points="1122.78,1258.33 1122.78,1267.94 1106.08,1267.94 1096.47,1258.33 	"/>
	<rect x="1122.78" y="1258.33" fill="#BA9878" width="4.87" height="9.61"/>
	<polygon fill="#FFFFFF" points="1134.33,1258.33 1134.33,1273 985.67,1273 985.67,1258.33 991.93,1258.33 991.93,1267.94 
		1013.34,1267.94 1022.95,1258.33 1037.09,1258.33 1027.48,1267.94 1091.94,1267.94 1082.33,1258.33 1096.47,1258.33 
		1106.08,1267.94 1127.65,1267.94 1127.65,1258.33 	"/>
	<path fill="#75929D" d="M367.49,583.35c-0.18,2-0.37,4.16-0.56,6.47l-4.08,0.07c-6.11,2.5-11.79,8.16-14.73,11.69
		c-0.62,7.52-2.9,34.46-6.29,70.11l-8.48,5.52c4.07-42.01,6.85-74.72,7.55-83.13c2.93-3.53,8.61-9.19,14.73-11.69l9.84-0.18
		C366.14,582.52,366.82,582.9,367.49,583.35z"/>
	<path fill="#FE7147" d="M328.02,801.08c-3.82,31.46-7.95,61.46-12.13,85.47c-4.98,28.55-6.76,52.96-6.83,73.08l-7.15,2.11
		c-0.51-21.8,0.96-49.44,6.75-82.69c3.75-21.47,7.44-47.72,10.91-75.53v-0.01L328.02,801.08z"/>
	<path fill="#E5CEB1" d="M376.56,1269.18c-1.78,0.59-3.62,1.07-5.15,1.21c-0.26,0.021-0.52,0.04-0.76,0.04
		c-4.71-20.31-58.65-238.75-60.99-248.27c-0.06-0.26-0.14-0.521-0.23-0.771c-0.11-0.31-7.34-20.54-8.28-59.42
		c-0.53-21.83,0.92-49.55,6.74-82.92c3.73-21.41,7.41-47.58,10.87-75.3c5.28-42.12,10.06-87.85,13.77-126
		c0.02-0.18,0.03-0.36,0.05-0.54c4.05-41.82,6.82-74.42,7.53-83.01c0-0.04,0.01-0.08,0.01-0.12c0.02-0.03,0.04-0.05,0.07-0.08
		c2.95-3.53,8.59-9.13,14.66-11.61l10.59-0.19c0.01,0,0.02,0.01,0.03,0.01l-9.84,0.18c-6.12,2.5-11.8,8.16-14.73,11.69
		c-0.7,8.41-3.48,41.12-7.55,83.13l8.48-5.52c-0.4,4.22-0.82,8.57-1.25,13.02c-3.42,35.21-7.76,76.95-12.56,116.37l-8.45,2.43v0.01
		c-3.47,27.811-7.16,54.061-10.91,75.53c-5.79,33.25-7.26,60.891-6.75,82.69l7.15-2.11c-0.2,45.3,8.25,68.93,8.37,69.26
		c0.09,0.25,0.17,0.511,0.23,0.771C319.81,1038.4,365.46,1223.25,376.56,1269.18z"/>
</g>
<g id="Layer_5">
	<g>
		<path fill="#1F1240" d="M879.711,233.271l-36.54-15.048c-6.659-2.742-17.108-7.581-23.849-11.031l-17.858-15.926
			c-0.178-0.159-0.363-0.31-0.555-0.452c-5.397-4.008-13.148-11.228-17.434-16.199l-2.065-4.369
			c-10.885-22.984-9.271-46.834-9.255-47.057c0.343-4.405-2.951-8.253-7.356-8.595c-4.406-0.332-8.253,2.952-8.595,7.357
			c-0.089,1.138-2.019,28.191,10.743,55.139l2.511,5.311c0.286,0.604,0.646,1.169,1.072,1.684c1.291,1.558,2.873,3.297,4.618,5.102
			c-48.265,36.371-127.846,8.929-154.357-1.858c1.051-1.135,2.02-2.229,2.86-3.244c0.426-0.515,0.787-1.081,1.072-1.685l2.507-5.305
			c12.764-26.952,10.834-54.005,10.746-55.143c-0.342-4.399-4.171-7.677-8.58-7.35c-4.399,0.333-7.698,4.173-7.374,8.573
			c0.018,0.238,1.631,24.088-9.256,47.078l-2.063,4.364c-4.285,4.971-12.036,12.19-17.434,16.199
			c-0.192,0.143-0.377,0.293-0.555,0.452l-17.865,15.93c-6.83,3.527-17.318,8.739-23.931,11.886l-37.147,17.678
			c-9.808,4.668-17.204,16.378-17.204,27.24v999.43c0,12.131,9.869,22,22,22H875.61c12.131,0,22-9.869,22-22V260
			C897.61,249.146,889.748,237.405,879.711,233.271z M603.105,203.44c2.579-1.935,5.49-4.374,8.375-6.977
			c9.765,4.249,33.36,13.674,61.763,19.087c13.716,2.614,26.7,3.912,38.869,3.912c29.01,0,53.35-7.402,71.802-21.917
			c2.48,2.193,4.945,4.232,7.162,5.896l10.475,9.34c-41.227,30.54-95.621,28.516-134.724,21.129
			c-32.587-6.156-60.08-16.899-72.801-22.373L603.105,203.44z M512.57,698.94l55.299,55.299v357.138l-55.299-55.299V698.94z
			 M881.61,1056.725l-54.653,54.652V754.239l54.653-54.653V1056.725z M881.61,682.616l-64.896,64.896
			c-1.126,1.125-1.758,2.651-1.758,4.242v374.108c0,2.427,1.462,4.614,3.704,5.543c0.742,0.308,1.521,0.457,2.295,0.457
			c1.562,0,3.096-0.609,4.243-1.758l56.411-56.411v189.736c0,3.309-2.691,6-6,6H518.57c-3.309,0-6-2.691-6-6v-190.382l57.057,57.057
			c1.148,1.148,2.683,1.758,4.244,1.758c0.772,0,1.552-0.149,2.294-0.457c2.242-0.929,3.704-3.116,3.704-5.543V751.754
			c0-1.591-0.632-3.117-1.757-4.242L512.57,681.97V488.817l179.753,179.753c1.171,1.171,2.707,1.757,4.243,1.757
			c0.176,0,0.35-0.035,0.525-0.05c0.175,0.015,0.35,0.05,0.525,0.05c1.536,0,3.071-0.586,4.242-1.757L881.61,488.818V682.616z
			 M881.61,471.849l-184.52,184.52L512.57,471.847V264c0-4.599,3.927-10.816,8.08-12.792l37.147-17.678
			c7.044-3.353,18.4-9.001,25.315-12.592c0.358-0.186,0.695-0.407,1.021-0.645c9.575,4.401,40.917,17.9,80.184,25.354
			c17.423,3.308,34.084,4.965,49.806,4.965c8.991,0,17.678-0.542,26.019-1.628c27.418-3.57,51.178-13.05,70.707-28.179
			c0.075,0.042,0.145,0.093,0.221,0.132c7.024,3.648,18.692,9.067,26.011,12.081l36.54,15.048c4.107,1.691,7.991,7.491,7.991,11.934
			V471.849z"/>
		<path fill="#1F1240" d="M582.957,579.769c-2.343-2.343-6.143-2.343-8.485,0c-2.343,2.343-2.343,6.142,0,8.485l118.055,118.054
			c1.171,1.172,2.707,1.758,4.243,1.758c0.108,0,0.214-0.025,0.322-0.031c0.108,0.006,0.214,0.031,0.322,0.031
			c1.536,0,3.071-0.586,4.242-1.758L819.71,588.254c2.344-2.343,2.344-6.142,0-8.485c-2.342-2.343-6.143-2.343-8.484,0
			L697.091,693.903L582.957,579.769z"/>
		<path fill="#1F1240" d="M383.31,578.294c-1.247-1.458-2.534-2.768-3.859-3.942l9.828-317.975
			c0.469-3.255,2.324-19.451-5.381-29.917c-3.412-4.635-8.307-7.532-14.156-8.378c-0.454-0.065-0.914-0.08-1.371-0.04l-8.128,0.695
			c-0.067,0.006-0.134,0.013-0.201,0.021c-5.869,0.702-10.835,3.478-14.36,8.027c-7.961,10.273-6.506,26.508-6.117,29.773
			l1.941,317.831c-7.333,5.283-12.2,11.71-13.062,12.891c-0.76,1.041-1.218,2.272-1.323,3.557
			c-0.155,1.899-15.728,190.996-32.251,285.806c-16.288,93.469,0.141,143.813,2.059,149.226
			c2.597,10.52,59.018,239.088,61.062,248.662c1.323,6.199,6.301,9.899,13.315,9.899c8.002,0,17.664-4.866,18.739-5.421
			c2.356-1.216,3.823-3.659,3.789-6.311l-8.844-689.944C384.969,581.117,384.375,579.539,383.31,578.294z M355.167,234.135
			c1.561-2.014,3.535-3.112,6.208-3.451l7.263-0.621c2.391,0.469,4.176,1.59,5.583,3.495c4.378,5.925,3.754,17.418,3.146,21.335
			c-0.04,0.251-0.064,0.504-0.072,0.758l-5.255,170.016h-19.443l-1.036-169.539c-0.001-0.254-0.02-0.508-0.053-0.76
			C351.02,251.715,350.641,239.976,355.167,234.135z M353.115,510.333L352.826,463h18.061l-1.463,47.333H353.115z M369.177,518.333
			l-1.532,49.565c-2.014-0.506-4.085-0.767-6.213-0.767c-2.762,0-5.426,0.438-7.962,1.185l-0.305-49.983H369.177z M352.777,455
			l-0.13-21.333h19.147L371.134,455H352.777z M371.416,1270.429c-4.707-20.313-58.631-238.748-60.983-248.273
			c-0.063-0.253-0.145-0.518-0.235-0.762c-0.179-0.484-17.706-49.553-1.536-142.347c15.686-90.002,30.476-263.882,32.239-284.971
			c2.926-3.527,8.605-9.186,14.733-11.684l10.579-0.195c1.635,0.745,3.234,1.881,4.813,3.429l8.75,682.655
			C377.047,1269.356,373.738,1270.396,371.416,1270.429z"/>
		<path fill="#1B1464" d="M1017.065,762.594c-1.951-1.953-5.119-1.953-7.07,0c-1.953,1.952-1.953,5.118,0,7.07l46.055,46.055
			c0.976,0.977,2.256,1.465,3.535,1.465c0.042,0,0.084-0.011,0.126-0.012c0.042,0.001,0.084,0.012,0.126,0.012
			c1.279,0,2.56-0.488,3.535-1.465l46.055-46.055c1.953-1.952,1.953-5.118,0-7.07c-1.951-1.953-5.119-1.953-7.07,0l-42.646,42.646
			L1017.065,762.594z"/>
		<path fill="#1F1240" d="M1137.355,624.597l-24.034-9.896c-1.461-0.793-9.108-5.079-14.144-10.451
			c-1.378-2.143-5.468-11.875-6.13-15.902c-1.592-9.72-2.171-19.177-2.248-20.533l-0.174-185.441
			c-0.001-0.858-0.159-1.708-0.468-2.509c-0.372-0.967-9.357-23.679-30.337-23.679h-0.11c-20.979,0-29.965,22.712-30.337,23.679
			c-0.309,0.801-0.467,1.652-0.468,2.51l-0.126,183.5c-0.216,2.058-1.377,12.892-2.846,22.177
			c-0.741,4.708-4.378,14.061-5.714,16.223c-5.043,5.366-12.678,9.643-14.121,10.427l-24.034,9.896
			c-2.624,1.08-4.336,3.638-4.335,6.475l0.199,643.871c0.001,3.865,3.135,6.998,7,6.998h149.721c3.866,0,7-3.134,7-7l0.04-643.87
			C1141.69,628.233,1139.979,625.677,1137.355,624.597z M1042.905,383.856c1.611-3.387,7.29-13.67,16.806-13.67h0.11
			c9.528,0,15.209,10.311,16.806,13.667l0.09,96.146h-33.877L1042.905,383.856z M1042.834,488h33.891l0.011,11.5h-33.909
			L1042.834,488z M1042.82,507.5h33.923l0.042,44.498h-33.995L1042.82,507.5z M1039.764,590.233
			c1.681-10.628,2.928-22.77,2.98-23.282c0.023-0.235,0.036-0.471,0.036-0.707l0.004-6.247h34.008l0.008,8.02
			c0,0.118,0.003,0.236,0.01,0.354c0.022,0.444,0.581,10.996,2.423,22.244c0.496,3.014,2.401,8.783,4.554,13.879
			c-15.065,7.743-36.405,2.147-47.626-1.809C1037.875,598.082,1039.297,593.196,1039.764,590.233z M1030.732,613.528
			c0.006-0.007,0.013-0.015,0.019-0.021c8.273,3.047,21.358,6.881,34.802,6.881c8.349,0,16.832-1.492,24.387-5.557
			c1.418,1.421,2.931,2.758,4.449,3.99c-22.369,12.753-52.965,4.288-67.885-1.231
			C1027.974,616.323,1029.411,614.964,1030.732,613.528z M991.787,815.711l14.728,14.729v131.802l-14.687-14.686L991.787,815.711z
			 M1027.48,1267.94l32.229-32.229l32.229,32.229H1027.48z M1127.671,947.478l-14.764,14.764V830.439l14.771-14.773
			L1127.671,947.478z M1127.68,801.524l-23.308,23.309c-0.938,0.938-1.465,2.209-1.465,3.535v145.944
			c0,2.022,1.218,3.846,3.087,4.619c0.618,0.257,1.268,0.381,1.912,0.381c1.301,0,2.58-0.508,3.536-1.465l16.228-16.229
			l-0.02,306.321h-21.57l-42.835-42.836c-0.938-0.938-2.209-1.465-3.535-1.465s-2.598,0.526-3.535,1.465l-42.835,42.836h-21.412
			l-0.095-306.239l16.146,16.146c0.956,0.957,2.235,1.465,3.536,1.465c0.645,0,1.294-0.124,1.912-0.381
			c1.869-0.773,3.087-2.597,3.087-4.619V828.368c0-1.326-0.526-2.598-1.465-3.535l-23.267-23.268l-0.022-71.853l64.085,64.085
			c0.976,0.977,2.256,1.465,3.535,1.465c0.068,0,0.137-0.017,0.205-0.02c0.068,0.003,0.137,0.02,0.205,0.02
			c1.279,0,2.56-0.488,3.535-1.465l64.358-64.359L1127.68,801.524z M1127.686,715.297l-68.1,68.101l-67.83-67.83l-0.024-79.81
			l20.023-8.245c0.192-0.079,0.38-0.167,0.564-0.262c0.182-0.094,2.012-1.054,4.604-2.674c8.102,3.486,28.035,11.008,49.24,11.008
			c12.667,0,25.779-2.704,37.087-10.542c2.187,1.336,3.688,2.124,3.851,2.209c0.185,0.096,0.372,0.183,0.564,0.262l20.025,8.245
			L1127.686,715.297z"/>
	</g>
</g>
</svg>
